<?xml version="1.0" standalone="no"?>
<!DOCTYPE svg PUBLIC "-//W3C//DTD SVG 20010904//EN"
 "http://www.w3.org/TR/2001/REC-SVG-20010904/DTD/svg10.dtd">
<svg version="1.0" xmlns="http://www.w3.org/2000/svg"
 width="568.000000pt" height="568.000000pt" viewBox="0 0 568.000000 568.000000"
 preserveAspectRatio="xMidYMid meet">
<metadata>
Created by potrace 1.14, written by Peter Selinger 2001-2017
</metadata>
<g transform="translate(0.000000,568.000000) scale(0.100000,-0.100000)"
fill="#000000" stroke="none">
<path d="M2379 4846 c-2 -2 -49 -7 -104 -10 -55 -3 -109 -8 -120 -10 -11 -2
-40 -9 -65 -15 -25 -5 -56 -12 -70 -15 -46 -8 -204 -68 -274 -103 -61 -31
-190 -111 -228 -142 -189 -153 -331 -336 -414 -533 -14 -34 -28 -69 -30 -77
-2 -9 -12 -49 -23 -89 -47 -170 -48 -382 -3 -572 14 -59 59 -194 75 -228 9
-18 11 -45 7 -77 -8 -64 -5 -315 5 -380 23 -159 74 -318 150 -470 72 -142 167
-275 284 -394 51 -53 105 -119 120 -147 125 -233 310 -410 566 -539 140 -71
328 -136 460 -159 17 -3 41 -7 55 -10 114 -22 224 -30 410 -31 159 0 344 10
360 20 3 2 24 6 46 9 21 3 56 10 77 15 20 5 37 7 37 5 0 -1 16 4 35 12 19 8
35 12 35 10 0 -9 106 31 184 69 194 95 213 205 56 330 -14 11 -23 19 -21 18 2
-2 19 8 37 22 18 14 35 25 39 25 7 0 10 2 100 78 129 109 178 178 179 253 2
96 -86 139 -275 134 -63 -2 -114 -4 -114 -5 0 -6 -123 -19 -245 -25 -76 -5
-398 -5 -435 -1 -140 16 -178 22 -306 51 -34 7 -126 50 -169 78 -25 17 -64 53
-86 81 -41 50 -111 176 -98 176 4 0 2 6 -4 13 -10 12 -37 101 -46 150 -2 15
-7 35 -10 45 -3 9 -8 38 -10 65 -3 26 -8 62 -11 80 -32 173 -40 967 -11 1117
3 14 7 43 11 65 3 22 14 68 25 102 48 155 121 253 229 305 62 31 72 33 176 32
165 0 242 -19 320 -78 49 -37 59 -50 84 -101 49 -98 45 -183 -29 -545 -33
-162 -58 -296 -55 -298 2 -2 0 -14 -4 -26 -8 -19 -14 -52 -27 -151 -2 -16 -6
-88 -8 -159 -8 -296 63 -391 327 -439 111 -21 352 -15 482 11 177 35 315 99
401 186 87 87 203 293 264 471 29 83 62 201 63 223 0 7 16 22 36 34 123 77
198 204 199 340 1 154 -48 259 -185 396 -51 50 -97 92 -103 92 -6 0 -20 9 -32
20 -12 11 -56 38 -99 60 -43 22 -84 49 -91 58 -15 21 -133 115 -200 160 -67
46 -239 133 -338 171 -47 18 -94 37 -105 41 -48 19 -159 54 -205 65 -3 0 -23
5 -45 10 -22 4 -44 9 -50 11 -13 3 -117 21 -175 31 -52 8 -435 9 -495 1 -22
-3 -60 1 -85 9 -86 26 -195 52 -235 57 -22 3 -40 5 -40 6 0 1 -30 3 -67 5 -37
2 -71 6 -76 9 -5 3 -11 4 -13 2z"/>
<path d="M4499 4562 c-40 -36 -47 -85 -14 -106 23 -15 33 -15 75 -1 34 11 49
34 50 72 0 22 -7 37 -22 47 -32 23 -53 20 -89 -12z"/>
<path d="M702 3071 c-49 -27 -57 -35 -69 -62 -14 -33 -10 -109 8 -137 19 -31
94 -64 154 -69 28 -2 55 -4 60 -5 6 0 21 2 35 5 14 3 42 8 63 12 20 4 37 10
37 14 0 4 6 8 13 8 25 0 67 35 67 57 0 26 -45 70 -115 114 -62 38 -94 51 -167
67 -50 11 -62 10 -86 -4z"/>
<path d="M860 2713 c-86 -22 -109 -53 -91 -121 30 -109 150 -119 249 -22 37
37 54 86 38 113 -11 17 -50 31 -111 40 -16 2 -55 -2 -85 -10z"/>
<path d="M4665 2333 c-67 -14 -139 -59 -148 -92 -8 -34 26 -54 96 -57 78 -2
117 9 151 42 62 63 2 128 -99 107z"/>
<path d="M4527 2084 c-1 -1 -22 -4 -46 -8 -105 -14 -94 -72 28 -153 180 -120
397 -177 489 -130 40 20 65 64 57 102 -2 11 -4 23 -4 26 -4 27 -118 106 -164
113 -7 1 -16 4 -22 8 -14 8 -71 20 -160 33 -48 7 -173 14 -178 9z"/>
</g>
</svg>
